<svg xmlns="http://www.w3.org/2000/svg" xmlns:xlink="http://www.w3.org/1999/xlink" viewBox="0 0 285.33 41.55"><defs><style>.cls-1{fill:none;}.cls-2{clip-path:url(#clip-path);}.cls-3{opacity:0.48;fill:url(#linear-gradient);}.cls-4{fill:#fff;}.cls-5{fill:#e16e21;}</style><clipPath id="clip-path"><rect class="cls-1" x="-283.56" y="290.04" width="1920" height="507.65"/></clipPath><linearGradient id="linear-gradient" x1="18245.39" y1="4360.87" x2="20169.23" y2="4360.87" gradientTransform="translate(19885.54 4705.55) rotate(180)" gradientUnits="userSpaceOnUse"><stop offset="0.48" stop-color="#e1e3e6"/><stop offset="0.97" stop-color="#c4cdd6"/></linearGradient></defs><title>Artboard 43_NU logo white</title><g id="initial_state" data-name="initial state"><g class="cls-2"><polygon class="cls-3" points="-283.68 220.43 1640.15 -139.07 1640.15 468.93 -283.68 828.43 -283.68 220.43"/></g><path class="cls-4" d="M58.74,12.78a8.41,8.41,0,0,0-3.14.56,5.89,5.89,0,0,0-2.1,1.41V13H49.77V28.78h3.91v-8a4.73,4.73,0,0,1,1.13-3.4,4.11,4.11,0,0,1,3.08-1.16,3.43,3.43,0,0,1,2.64,1,4.22,4.22,0,0,1,.93,3v8.59h3.91v-9a7,7,0,0,0-1.82-5.2,6.69,6.69,0,0,0-4.81-1.75"/><rect class="cls-4" x="69" y="12.95" width="3.91" height="15.82"/><path class="cls-4" d="M72.71,6.65A2.54,2.54,0,0,0,71,6a2.47,2.47,0,0,0-1.75.66,2.28,2.28,0,0,0,0,3.31,2.47,2.47,0,0,0,1.75.66,2.37,2.37,0,0,0,1.77-.7,2.33,2.33,0,0,0,.7-1.71,2,2,0,0,0-.72-1.59"/><path class="cls-4" d="M85.72,12.78a8.41,8.41,0,0,0-3.14.56,5.89,5.89,0,0,0-2.1,1.41V13H76.75V28.78h3.91v-8a4.73,4.73,0,0,1,1.13-3.4,4.11,4.11,0,0,1,3.08-1.16,3.43,3.43,0,0,1,2.64,1,4.22,4.22,0,0,1,.93,3v8.59h3.91v-9a7,7,0,0,0-1.82-5.2,6.69,6.69,0,0,0-4.81-1.75"/><path class="cls-4" d="M104.46,25.1a3.08,3.08,0,0,1-2,.62,2,2,0,0,1-1.51-.56,2.35,2.35,0,0,1-.51-1.64V16.24h4.16V13.07h-4.16V9.51H96.57v3.56H94v3.17h2.56V23.6a5.28,5.28,0,0,0,1.44,4,5.62,5.62,0,0,0,4,1.38,7.12,7.12,0,0,0,2-.27,4.47,4.47,0,0,0,1.6-.81l.08-.06L104.6,25Z"/><path class="cls-4" d="M121.26,16.68a7.31,7.31,0,0,0-2.85-2.88,8.32,8.32,0,0,0-4.13-1,8.51,8.51,0,0,0-4.2,1,7.51,7.51,0,0,0-2.92,2.89,8.3,8.3,0,0,0-1,4.16,8.15,8.15,0,0,0,1.08,4.19,7.45,7.45,0,0,0,3.07,2.89,9.72,9.72,0,0,0,4.57,1,9.92,9.92,0,0,0,3.67-.65,6.7,6.7,0,0,0,2.7-1.93l.07-.09-2.12-2.43-.1.1a5.57,5.57,0,0,1-4.13,1.65,5.42,5.42,0,0,1-3.29-1A4.11,4.11,0,0,1,110,22.16h12.17V22c0-.48.06-.84.06-1.09a8.67,8.67,0,0,0-1-4.27m-9.85.28a4.26,4.26,0,0,1,2.87-1,4.22,4.22,0,0,1,2.89,1,4.16,4.16,0,0,1,1.36,2.51H110a4.15,4.15,0,0,1,1.4-2.52"/><polygon class="cls-4" points="132.73 20.69 138.66 12.95 134.4 12.95 130.64 17.96 126.89 12.95 122.51 12.95 128.41 20.75 122.25 28.78 126.6 28.78 130.56 23.47 134.48 28.78 138.92 28.78 132.73 20.69"/><path class="cls-5" d="M144.16,26.73c-1.56-1.58-2.33-3.84-2.33-6.78V8.47h3.75V19.8q0,6,5.14,6t5.11-6V8.47h3.7V20q0,4.41-2.33,6.78a10.15,10.15,0,0,1-13,0Z"/><path class="cls-5" d="M176.37,14.92a6.7,6.7,0,0,1,1.76,5v8.84h-3.61V20.44a4.31,4.31,0,0,0-1-3.05,3.55,3.55,0,0,0-2.72-1,4.16,4.16,0,0,0-3.14,1.2A4.78,4.78,0,0,0,166.55,21v7.8h-3.61V13.39h3.44v2a5.76,5.76,0,0,1,2.25-1.62,8.26,8.26,0,0,1,3.06-.54A6.41,6.41,0,0,1,176.37,14.92Z"/><path class="cls-5" d="M181.68,10.23A2,2,0,0,1,181,8.68a2,2,0,0,1,.66-1.54,2.32,2.32,0,0,1,1.65-.62,2.37,2.37,0,0,1,1.65.59,1.91,1.91,0,0,1,.66,1.49,2.2,2.2,0,0,1-.65,1.6,2.26,2.26,0,0,1-1.66.65A2.36,2.36,0,0,1,181.68,10.23Zm-.17,3.16h3.61V28.81h-3.61Z"/><path class="cls-5" d="M204.17,13.39l-6.61,15.42h-3.73l-6.61-15.42H191l4.79,11.44,4.94-11.44Z"/><path class="cls-5" d="M220.14,22.26H208A4.24,4.24,0,0,0,209.7,25,5.49,5.49,0,0,0,213,26a5.66,5.66,0,0,0,4.19-1.67l1.93,2.22a6.54,6.54,0,0,1-2.63,1.88A9.64,9.64,0,0,1,213,29a9.48,9.48,0,0,1-4.48-1,7.22,7.22,0,0,1-3-2.81,7.92,7.92,0,0,1-1.06-4.09,8,8,0,0,1,1-4.06,7.24,7.24,0,0,1,2.84-2.81,8.23,8.23,0,0,1,4.1-1,8.13,8.13,0,0,1,4,1A7,7,0,0,1,219.2,17a8.47,8.47,0,0,1,1,4.18C220.2,21.44,220.18,21.79,220.14,22.26Zm-10.67-5.13A4.32,4.32,0,0,0,208,19.86h8.75a4.25,4.25,0,0,0-1.41-2.72,4.32,4.32,0,0,0-2.95-1A4.38,4.38,0,0,0,209.47,17.13Z"/><path class="cls-5" d="M231.49,13.22v3.43a4.92,4.92,0,0,0-4.13,1.14,4.9,4.9,0,0,0-1.19,3.54v7.48h-3.61V13.39H226v2.25C227,14,228.87,13.22,231.49,13.22Z"/><path class="cls-5" d="M234.87,28.52A9.09,9.09,0,0,1,232,27.28l1.39-2.74a8.87,8.87,0,0,0,2.5,1.11,10.33,10.33,0,0,0,2.87.42c2.16,0,3.23-.57,3.23-1.71a1.12,1.12,0,0,0-.82-1.12,14.14,14.14,0,0,0-2.64-.61,21.35,21.35,0,0,1-3.11-.66,4.72,4.72,0,0,1-2.07-1.32,3.64,3.64,0,0,1-.89-2.61,4.13,4.13,0,0,1,1.84-3.51,8.3,8.3,0,0,1,4.95-1.31,14.36,14.36,0,0,1,3.18.36,9.08,9.08,0,0,1,2.6,1l-1.39,2.75a8.55,8.55,0,0,0-4.42-1.16,4.86,4.86,0,0,0-2.41.48,1.42,1.42,0,0,0-.82,1.26,1.25,1.25,0,0,0,.88,1.22,14,14,0,0,0,2.73.68,20.72,20.72,0,0,1,3,.67,4.73,4.73,0,0,1,2,1.27,3.56,3.56,0,0,1,.85,2.54,4,4,0,0,1-1.88,3.46,8.81,8.81,0,0,1-5.11,1.3A13.7,13.7,0,0,1,234.87,28.52Z"/><path class="cls-5" d="M248.29,10.23a2,2,0,0,1-.66-1.55,2,2,0,0,1,.66-1.54,2.3,2.3,0,0,1,1.65-.62,2.35,2.35,0,0,1,1.64.59,1.88,1.88,0,0,1,.67,1.49,2.2,2.2,0,0,1-.65,1.6,2.26,2.26,0,0,1-1.66.65A2.35,2.35,0,0,1,248.29,10.23Zm-.17,3.16h3.61V28.81h-3.61Z"/><path class="cls-5" d="M265.41,28a4.19,4.19,0,0,1-1.55.78,6.65,6.65,0,0,1-1.92.26A5.45,5.45,0,0,1,258,27.68a5.11,5.11,0,0,1-1.38-3.87V16.39h-2.54V13.5h2.54V10h3.61V13.5h4.13v2.89h-4.13v7.34a2.44,2.44,0,0,0,.55,1.72,2.06,2.06,0,0,0,1.59.59,3.15,3.15,0,0,0,2-.64Z"/><path class="cls-5" d="M283,13.39l-7.22,16.66a7.64,7.64,0,0,1-2.46,3.54,5.88,5.88,0,0,1-3.49,1,7.17,7.17,0,0,1-2.28-.38,5.08,5.08,0,0,1-1.85-1l1.44-2.66a3.91,3.91,0,0,0,1.23.78,3.62,3.62,0,0,0,1.43.29,2.46,2.46,0,0,0,1.58-.49,4.42,4.42,0,0,0,1.14-1.64l.26-.61L266,13.39h3.75l4.85,11.41,4.88-11.41Z"/><path class="cls-4" d="M21.67,35.12a14.8,14.8,0,1,1,14.8-14.8A14.82,14.82,0,0,1,21.67,35.12Zm0-28.64A13.84,13.84,0,1,0,35.5,20.32,13.86,13.86,0,0,0,21.67,6.48Z"/><polygon class="cls-4" points="25.35 20.79 30.6 26.03 26.91 29.72 17.99 20.79 26.91 11.86 30.6 15.54 25.35 20.79"/><polygon class="cls-5" points="25.35 20.79 16.42 29.72 12.74 26.03 17.99 20.79 12.74 15.54 16.42 11.86 25.35 20.79"/><path class="cls-4" d="M21.67,39.62A19.3,19.3,0,1,1,41,20.32,19.32,19.32,0,0,1,21.67,39.62Zm0-37.19A17.89,17.89,0,1,0,39.55,20.32,17.91,17.91,0,0,0,21.67,2.43Z"/></g></svg>